<svg width="512" height="512" viewBox="0 0 512 512" fill="none" xmlns="http://www.w3.org/2000/svg">
<path fill-rule="evenodd" clip-rule="evenodd" d="M387.467 298.5V458.5H124.533V298.5C212.178 298.5 299.822 298.5 387.467 298.5ZM491 10H21V502H491V10Z" fill="white"/>
<path fill-rule="evenodd" clip-rule="evenodd" d="M124.533 298.5V458.5H387.468V298.5C299.822 298.5 212.178 298.5 124.533 298.5Z" fill="#FF7B79"/>
<path fill-rule="evenodd" clip-rule="evenodd" d="M152.102 173.5C163.102 173.5 172.102 182.5 172.102 193.5V233.501C172.102 244.501 163.102 253.501 152.102 253.501C141.102 253.501 132.102 244.501 132.102 233.501V193.5C132.102 182.5 141.102 173.5 152.102 173.5Z" stroke="black" stroke-width="20.0001" stroke-miterlimit="22.9256" stroke-linecap="round" stroke-linejoin="round"/>
<path d="M207.102 253.5V173.5L247.102 253.5V173.5" stroke="black" stroke-width="20.0001" stroke-miterlimit="22.9256" stroke-linecap="round" stroke-linejoin="round"/>
<path d="M282.102 173.5V253.5H317.102" stroke="black" stroke-width="20.0001" stroke-miterlimit="22.9256" stroke-linecap="round" stroke-linejoin="round"/>
<path d="M379.898 173.5V203.499C379.898 214.498 370.898 223.499 359.898 223.499C348.898 223.499 339.899 214.499 339.899 203.499V173.5" stroke="black" stroke-width="20.0001" stroke-miterlimit="22.9256" stroke-linecap="round" stroke-linejoin="round"/>
<path d="M359.898 224.753V253.5" stroke="black" stroke-width="20.0001" stroke-miterlimit="22.9256" stroke-linecap="round" stroke-linejoin="round"/>
<path d="M101.704 103.499H65.204M63.579 133.5V73.5C63.579 62.5 72.579 53.5 83.579 53.5C94.579 53.5 103.579 62.5 103.579 73.5V133.5" stroke="black" stroke-width="20.0001" stroke-miterlimit="22.9256" stroke-linecap="round" stroke-linejoin="round"/>
<path d="M253.579 53.5V113.5C253.579 124.5 244.579 133.5 233.579 133.5C222.579 133.5 213.58 124.5 213.58 113.5V53.5" stroke="black" stroke-width="20.0001" stroke-miterlimit="22.9256" stroke-linecap="round" stroke-linejoin="round"/>
<path d="M288.579 53.5V133.5H323.579" stroke="black" stroke-width="20.0001" stroke-miterlimit="22.9256" stroke-linecap="round" stroke-linejoin="round"/>
<path d="M366.079 56.563V133.5" stroke="black" stroke-width="20.0001" stroke-miterlimit="22.9256" stroke-linecap="round" stroke-linejoin="round"/>
<path d="M348.579 53.501H383.579" stroke="black" stroke-width="20.0001" stroke-miterlimit="22.9256" stroke-linecap="round" stroke-linejoin="round"/>
<path fill-rule="evenodd" clip-rule="evenodd" d="M138.579 53.5H158.579C169.579 53.5 178.579 62.5 178.579 73.5V113.5C178.579 124.5 169.579 133.5 158.579 133.5H138.579V53.5Z" stroke="black" stroke-width="20.0001" stroke-miterlimit="22.9256" stroke-linecap="round" stroke-linejoin="round"/>
<path d="M446.021 57.191L440.704 54.989C430.718 50.854 419.165 55.638 415.03 65.624C410.894 75.609 415.679 87.162 425.664 91.298L430.982 93.5L436.3 95.702C446.284 99.838 451.07 111.391 446.934 121.376C442.799 131.362 431.245 136.147 421.26 132.011L415.943 129.809" stroke="black" stroke-width="20.0001" stroke-miterlimit="22.9256" stroke-linecap="round" stroke-linejoin="round"/>
<path d="M491 10H21V502H491V10Z" stroke="black" stroke-width="20.0001" stroke-miterlimit="2.6131" stroke-linecap="round" stroke-linejoin="round"/>
<path d="M252.036 298.5H387.467V458.5H124.533V298.5H162.036" stroke="black" stroke-width="20.0001" stroke-miterlimit="2.6131" stroke-linecap="round" stroke-linejoin="round"/>
<path d="M322.467 403.5V353.5" stroke="black" stroke-width="20.0001" stroke-miterlimit="2.6131" stroke-linecap="round" stroke-linejoin="round"/>
<path d="M347.467 378.5H297.468" stroke="black" stroke-width="20.0001" stroke-miterlimit="2.6131" stroke-linecap="round" stroke-linejoin="round"/>
<path d="M241.037 375.927C232.745 373.67 226.992 366.141 226.992 357.548C226.992 347.028 235.52 338.5 246.04 338.5C256.56 338.5 265.088 347.028 265.088 357.548C265.088 366.096 259.393 373.598 251.159 375.895" stroke="black" stroke-width="20.0001" stroke-miterlimit="22.9256" stroke-linecap="round" stroke-linejoin="round"/>
<path d="M246.039 418.5C257.874 418.5 267.468 408.906 267.468 397.071C267.468 385.236 257.874 375.642 246.039 375.642C234.204 375.642 224.61 385.236 224.61 397.071C224.61 408.906 234.204 418.5 246.039 418.5Z" stroke="black" stroke-width="20.0001" stroke-miterlimit="22.9256" stroke-linecap="round" stroke-linejoin="round"/>
<path d="M164.612 338.5H179.611V414.25" stroke="black" stroke-width="20.0001" stroke-miterlimit="22.9256" stroke-linecap="round" stroke-linejoin="round"/>
<path d="M164.611 418.5H194.611" stroke="black" stroke-width="20.0001" stroke-miterlimit="22.9256" stroke-linecap="round" stroke-linejoin="round"/>
<path d="M207.032 298.5H207.04" stroke="black" stroke-width="20.0001" stroke-miterlimit="22.9256" stroke-linecap="round" stroke-linejoin="round"/>
</svg>
