<svg width="512" height="512" viewBox="0 0 512 512" fill="none" xmlns="http://www.w3.org/2000/svg">
<path d="M439.803 65.742V424.902C439.803 435.624 431.141 444.316 420.455 444.316H196.022C185.336 444.316 176.674 435.624 176.674 424.902V366.66H153.457V318.125H176.674V65.742C176.674 55.02 185.336 46.328 196.022 46.328H420.457C431.142 46.328 439.803 55.02 439.803 65.742Z" fill="#7F90FF"/>
<path d="M458.5 405.488H235.37C224.324 405.488 215.37 396.534 215.37 385.488V27.5C215.37 16.454 224.324 7.5 235.37 7.5H458.5C469.546 7.5 478.5 16.454 478.5 27.5V385.488C478.5 396.534 469.546 405.488 458.5 405.488Z" fill="white"/>
<path d="M292.148 65.856C293.095 67.199 293.095 68.996 292.148 70.34L272.702 97.934C271.16 100.122 267.925 100.122 266.383 97.934L246.938 70.34C245.991 68.997 245.991 67.2 246.938 65.856L266.384 38.262C267.926 36.074 271.161 36.074 272.703 38.262L292.148 65.856ZM352.855 150.587C349.966 146.487 343.904 146.487 341.014 150.587L304.577 202.294C302.803 204.812 302.803 208.178 304.577 210.695L341.014 262.402C343.903 266.502 349.965 266.502 352.855 262.402L389.292 210.695C391.066 208.177 391.066 204.811 389.292 202.294L352.855 150.587ZM446.931 342.648L427.485 315.054C425.943 312.866 422.708 312.866 421.166 315.054L401.72 342.648C400.773 343.991 400.773 345.788 401.72 347.132L421.166 374.726C422.708 376.914 425.943 376.914 427.485 374.726L446.931 347.132C447.878 345.788 447.878 343.992 446.931 342.648Z" fill="#DC5B4D"/>
<path d="M235.201 362.393V484.5C235.201 495.546 226.247 504.5 215.201 504.5H93.647C82.601 504.5 73.647 495.546 73.647 484.5V362.393C73.647 351.347 82.601 342.393 93.647 342.393H215.201C226.247 342.393 235.201 351.347 235.201 362.393Z" fill="#EE5B55"/>
<path d="M164.685 413.15C170.352 418.836 170.352 428.056 164.685 433.742C159.018 439.428 149.83 439.428 144.164 433.742C138.497 428.056 138.497 418.837 144.164 413.15C149.83 407.464 159.018 407.464 164.685 413.15ZM105.467 373.352C99.8 379.038 99.8 388.258 105.467 393.944C111.134 399.63 120.322 399.63 125.989 393.944C131.656 388.258 131.656 379.039 125.989 373.352C120.322 367.665 111.134 367.665 105.467 373.352ZM203.38 393.943C209.047 388.257 209.047 379.038 203.38 373.351C197.713 367.665 188.525 367.665 182.858 373.351C177.191 379.037 177.191 388.257 182.858 393.943C188.526 399.629 197.713 399.629 203.38 393.943ZM105.467 455.273C99.8 460.959 99.8 470.178 105.467 475.865C111.134 481.551 120.322 481.551 125.989 475.865C131.656 470.179 131.656 460.959 125.989 455.273C120.322 449.586 111.134 449.586 105.467 455.273ZM182.859 455.273C177.192 460.959 177.192 470.178 182.859 475.865C188.526 481.551 197.714 481.551 203.381 475.865C209.048 470.179 209.048 460.959 203.381 455.273C197.713 449.586 188.526 449.586 182.859 455.273Z" fill="#FFF5C2"/>
<path d="M154.424 99.717C221.208 99.717 275.348 154.042 275.348 221.055C275.348 288.068 221.209 342.393 154.424 342.393C87.639 342.393 33.5 288.068 33.5 221.055C33.5 154.042 87.639 99.717 154.424 99.717Z" fill="#5E9F51"/>
<path d="M33.506 221.54H153.256L68.58 306.506C47.003 284.683 33.636 254.679 33.506 221.54ZM240.268 135.603L155.592 220.569H275.342C275.212 187.43 261.845 157.426 240.268 135.603ZM154.908 342.386C187.934 342.256 217.835 328.843 239.584 307.192L154.908 222.226V342.386ZM153.94 219.883V99.723C120.914 99.853 91.013 113.266 69.264 134.917L153.94 219.883Z" fill="#77BD63"/>
<path d="M154.424 140.486C198.769 140.486 234.717 176.558 234.717 221.054C234.717 265.55 198.768 301.622 154.424 301.622C110.08 301.622 74.13 265.551 74.13 221.055C74.13 176.559 110.079 140.486 154.424 140.486Z" fill="#417A47"/>
<path d="M158.668 181.138L170.552 202.942C170.996 203.756 171.663 204.426 172.475 204.871L194.205 216.796C197.56 218.637 197.56 223.472 194.205 225.313L172.475 237.238C171.663 237.683 170.996 238.353 170.552 239.167L158.668 260.971C156.833 264.337 152.015 264.337 150.181 260.971L138.297 239.167C137.853 238.353 137.186 237.683 136.374 237.238L114.644 225.313C111.289 223.472 111.289 218.637 114.644 216.796L136.374 204.871C137.186 204.426 137.853 203.756 138.297 202.942L150.181 181.138C152.015 177.772 156.833 177.772 158.668 181.138Z" fill="#FFDB8B"/>
<path d="M115.728 443.508C109.844 443.508 104.313 445.806 100.155 449.978C91.588 458.575 91.588 472.562 100.155 481.158C104.313 485.33 109.843 487.629 115.728 487.629C121.612 487.629 127.143 485.331 131.301 481.158C139.867 472.562 139.867 458.575 131.301 449.978C127.143 445.806 121.612 443.508 115.728 443.508ZM120.677 470.57C119.353 471.898 117.596 472.629 115.728 472.629C113.86 472.629 112.103 471.898 110.78 470.57C108.032 467.812 108.032 463.325 110.78 460.567C112.103 459.239 113.86 458.508 115.728 458.508C117.596 458.508 119.353 459.239 120.677 460.567C123.425 463.325 123.425 467.812 120.677 470.57ZM433.617 310.734C431.49 307.715 428.017 305.912 424.326 305.912C420.635 305.912 417.162 307.715 415.035 310.733L395.59 338.327C392.824 342.251 392.823 347.526 395.59 351.452L415.036 379.046C417.163 382.065 420.636 383.867 424.326 383.867C428.016 383.867 431.489 382.065 433.617 379.046L453.062 351.451C455.828 347.526 455.828 342.252 453.062 338.327L433.617 310.734ZM424.326 366.19L409.316 344.89L424.326 323.59L439.336 344.89L424.326 366.19ZM169.997 407.856C165.839 403.683 160.309 401.386 154.424 401.385C148.54 401.385 143.009 403.683 138.85 407.856C130.284 416.452 130.284 430.439 138.85 439.036C143.008 443.208 148.539 445.506 154.423 445.506C160.307 445.506 165.838 443.208 169.996 439.035C178.564 430.44 178.564 416.453 169.997 407.856ZM159.372 428.448C158.049 429.775 156.292 430.507 154.424 430.507C152.556 430.507 150.799 429.776 149.475 428.448C146.727 425.69 146.727 421.202 149.475 418.445C150.798 417.117 152.556 416.386 154.424 416.386C156.292 416.386 158.049 417.117 159.372 418.445C162.121 421.203 162.121 425.69 159.372 428.448ZM193.12 361.587C187.236 361.587 181.705 363.885 177.547 368.058C168.98 376.654 168.98 390.641 177.547 399.238C181.705 403.41 187.235 405.708 193.12 405.708C199.005 405.708 204.535 403.41 208.693 399.237C217.26 390.641 217.26 376.654 208.693 368.057C204.534 363.885 199.004 361.587 193.12 361.587ZM198.068 388.649C196.745 389.977 194.987 390.708 193.119 390.708C191.251 390.708 189.494 389.977 188.171 388.649C185.422 385.891 185.422 381.404 188.171 378.646C189.494 377.318 191.252 376.587 193.12 376.587C194.988 376.587 196.745 377.318 198.068 378.646C200.816 381.404 200.816 385.891 198.068 388.649ZM459.152 0H234.717C219.913 0 207.869 12.074 207.869 26.914V38.828H196.021C181.217 38.828 169.173 50.902 169.173 65.742V93.061C164.332 92.503 159.411 92.216 154.423 92.216C119.362 92.216 87.541 106.381 64.343 129.31C64.093 129.503 63.852 129.714 63.622 129.942C63.38 130.184 63.158 130.437 62.955 130.702C40.116 153.974 26 185.894 26 221.055C26 256.216 40.116 288.136 62.957 311.407C63.159 311.672 63.381 311.925 63.624 312.167C63.854 312.396 64.095 312.607 64.345 312.8C73.184 321.537 83.276 329 94.322 334.894H93.648C78.484 334.894 66.148 347.23 66.148 362.394V484.5C66.148 499.664 78.484 512 93.648 512H215.202C230.366 512 242.702 499.664 242.702 484.5V451.816H420.457C435.261 451.816 447.305 439.742 447.305 424.902V412.988H459.153C473.957 412.988 486.001 400.914 486.001 386.074V26.914C486 12.074 473.956 0 459.152 0ZM184.174 65.742C184.174 59.173 189.489 53.828 196.022 53.828H207.87V103.91C200.335 100.436 192.404 97.672 184.174 95.706V65.742ZM161.924 107.463C187.574 109.151 210.923 119.436 229.132 135.466L210.945 153.715C197.457 142.304 180.506 134.889 161.924 133.304V107.463ZM221.537 277.772C232.926 264.232 240.327 247.213 241.902 228.554H267.605C265.928 254.299 255.688 277.736 239.719 296.015L221.537 277.772ZM229.132 306.643C210.923 322.674 187.574 332.958 161.924 334.646V308.804C180.506 307.22 197.457 299.804 210.945 288.393L229.132 306.643ZM241.902 213.555C240.326 194.896 232.925 177.877 221.537 164.337L239.719 146.093C255.688 164.372 265.928 187.809 267.605 213.554L241.902 213.555ZM227.217 221.055C227.217 261.345 194.562 294.123 154.424 294.123C114.286 294.123 81.63 261.345 81.63 221.055C81.63 180.765 114.285 147.987 154.423 147.987C194.561 147.987 227.217 180.765 227.217 221.055ZM146.924 107.463V133.305C128.342 134.889 111.391 142.305 97.903 153.715L79.716 135.466C97.926 119.436 121.274 109.151 146.924 107.463ZM69.13 146.093L87.311 164.337C75.922 177.877 68.521 194.896 66.946 213.555H41.244C42.92 187.81 53.161 164.372 69.13 146.093ZM41.244 228.555H66.946C68.522 247.214 75.922 264.233 87.311 277.773L69.13 296.016C53.161 277.737 42.92 254.3 41.244 228.555ZM79.716 306.643L97.902 288.394C111.39 299.805 128.341 307.22 146.923 308.805V334.647C121.274 332.958 97.925 322.674 79.716 306.643ZM227.701 484.5C227.701 491.393 222.094 497 215.201 497H93.647C86.754 497 81.147 491.393 81.147 484.5V362.393C81.147 355.5 86.754 349.893 93.647 349.893H215.201C222.094 349.893 227.701 355.5 227.701 362.393V484.5ZM471 386.074C471 392.643 465.685 397.988 459.152 397.988H308.48C304.338 397.988 300.98 401.346 300.98 405.488C300.98 409.63 304.338 412.988 308.48 412.988H432.303V424.902C432.303 431.471 426.988 436.816 420.455 436.816H242.701V412.988H278.976C283.118 412.988 286.476 409.63 286.476 405.488C286.476 401.346 283.118 397.988 278.976 397.988H242.701V362.392C242.701 347.228 230.365 334.892 215.201 334.892H214.526C225.572 328.998 235.664 321.535 244.503 312.798C244.753 312.605 244.994 312.394 245.224 312.165C245.466 311.923 245.688 311.669 245.891 311.405C268.732 288.134 282.848 256.214 282.848 221.053C282.848 185.892 268.732 153.972 245.891 130.701C245.688 130.437 245.466 130.183 245.224 129.941C244.994 129.712 244.753 129.501 244.503 129.308C237.94 122.821 230.691 117.039 222.869 112.078V26.914C222.869 20.345 228.184 15 234.717 15H459.152C465.685 15 471 20.345 471 26.914V386.074ZM298.279 61.537L278.833 33.942C276.706 30.923 273.232 29.121 269.542 29.121C265.852 29.121 262.379 30.924 260.253 33.942L240.807 61.537C238.041 65.462 238.041 70.737 240.807 74.661L260.252 102.254C262.379 105.274 265.852 107.076 269.542 107.076H269.543C273.233 107.076 276.707 105.274 278.834 102.255L298.279 74.661C301.045 70.736 301.045 65.462 298.279 61.537ZM269.543 89.397L254.534 68.098L269.543 46.799L284.553 68.098L269.543 89.397ZM115.728 405.708C121.612 405.708 127.143 403.41 131.302 399.237C139.868 390.641 139.868 376.654 131.302 368.057C127.144 363.885 121.613 361.587 115.729 361.587C109.845 361.587 104.314 363.885 100.156 368.058C91.589 376.654 91.589 390.641 100.156 399.238C104.313 403.41 109.844 405.708 115.728 405.708ZM110.78 378.646C112.103 377.319 113.86 376.587 115.728 376.587C117.596 376.587 119.353 377.318 120.677 378.646C123.425 381.404 123.425 385.892 120.677 388.649C119.353 389.977 117.596 390.708 115.728 390.708C113.86 390.708 112.103 389.977 110.78 388.649C108.032 385.891 108.032 381.404 110.78 378.646ZM395.423 197.973L358.985 146.266C356.225 142.349 351.72 140.011 346.934 140.011C342.148 140.011 337.642 142.349 334.883 146.266L298.445 197.973C294.854 203.069 294.854 209.918 298.445 215.015L334.883 266.722C337.643 270.639 342.148 272.977 346.934 272.977C351.72 272.977 356.225 270.639 358.985 266.722L395.422 215.016C399.015 209.918 399.015 203.07 395.423 197.973ZM346.935 257.782L310.792 206.494L346.935 155.206L383.078 206.494L346.935 257.782ZM193.12 443.508C187.236 443.508 181.705 445.806 177.547 449.978C168.98 458.575 168.98 472.562 177.547 481.159C181.705 485.331 187.235 487.629 193.12 487.629C199.005 487.629 204.535 485.331 208.693 481.159C217.26 472.563 217.26 458.576 208.693 449.978C204.534 445.806 199.004 443.508 193.12 443.508ZM198.068 470.57C196.745 471.898 194.987 472.629 193.119 472.629C191.251 472.629 189.494 471.898 188.17 470.57C185.421 467.812 185.422 463.325 188.17 460.567C189.493 459.239 191.251 458.508 193.119 458.508C194.987 458.508 196.744 459.239 198.067 460.567C200.816 463.325 200.817 467.812 198.068 470.57ZM111.035 231.888L132.082 243.438L143.595 264.561C145.759 268.53 149.908 270.996 154.425 270.996C158.941 270.996 163.09 268.53 165.253 264.561L176.766 243.438L197.812 231.888C201.765 229.719 204.22 225.568 204.22 221.055C204.22 216.542 201.764 212.39 197.812 210.222L176.765 198.672L165.252 177.55C163.089 173.58 158.939 171.114 154.424 171.114C149.908 171.114 145.758 173.58 143.595 177.549L132.082 198.672L111.036 210.222C107.083 212.391 104.628 216.542 104.628 221.055C104.628 225.568 107.083 229.719 111.035 231.888ZM139.981 211.447C142.054 210.309 143.749 208.61 144.881 206.531L154.423 189.024L163.967 206.534C165.1 208.612 166.794 210.31 168.865 211.447L186.373 221.055L168.865 230.663C166.793 231.8 165.099 233.498 163.965 235.579L154.423 253.086L144.881 235.579C143.749 233.501 142.054 231.801 139.981 230.663L122.473 221.055L139.981 211.447Z" fill="black"/>
</svg>
