<svg width="512" height="512" viewBox="0 0 512 512" fill="none" xmlns="http://www.w3.org/2000/svg">
<mask id="mask0_4222_982" style="mask-type:luminance" maskUnits="userSpaceOnUse" x="0" y="0" width="512" height="512">
<path d="M0 3.05176e-05H512V512H0V3.05176e-05Z" fill="white"/>
</mask>
<g mask="url(#mask0_4222_982)">
<path d="M442 247.71V156C442 139.43 455.43 126 472 126C488.57 126 502 139.43 502 156V291.84C502 337.29 476.32 378.84 435.67 399.17L382 426V486H276V355.45C276 330.08 295.22 308.83 320.46 306.3C320.576 306.268 366.298 299.273 388.33 277.24L410.79 254.79C419.174 246.406 431.396 243.949 442 247.71Z" fill="#FCE8D0"/>
<path d="M318.95 26C373.73 26 392.82 76.45 392.82 106C392.82 166 343.5 200.09 256 276C168.5 200.09 119.179 166 119.179 106C119.179 76.45 138.269 26 193.05 26C226.679 26 245.32 50.55 256 70.09C266.679 50.55 285.32 26 318.95 26Z" fill="#DC5B4D"/>
<path d="M70 247.71C80.6 243.951 92.824 246.404 101.21 254.79L123.67 277.24C145.263 298.832 191.438 306.272 191.54 306.3C216.78 308.83 236 330.08 236 355.45V486H130V426L76.33 399.17C35.68 378.84 10 337.29 10 291.84V156C10 139.43 23.43 126 40 126C56.57 126 70 139.43 70 156V247.71Z" fill="#FCE8D0"/>
<path d="M392.82 106C392.82 166 343.5 200.09 256 276C168.5 200.09 119.179 166 119.179 106C119.179 76.45 138.269 26 193.049 26C226.679 26 245.32 50.55 256 70.09C266.679 50.55 285.32 26 318.95 26C373.73 26 392.82 76.45 392.82 106Z" stroke="black" stroke-width="26.6667" stroke-miterlimit="10" stroke-linecap="round" stroke-linejoin="round"/>
<path d="M402 348.43L453.21 297.21C458.64 291.781 462 284.281 462 276C462 262.941 453.66 251.83 442 247.71" stroke="black" stroke-width="26.6667" stroke-miterlimit="10" stroke-linecap="round" stroke-linejoin="round"/>
<path d="M70 247.71C73.13 246.6 76.49 246 80 246C88.28 246 95.78 249.36 101.21 254.79L123.67 277.24C137.64 291.21 171.15 304.25 190.8 306.22L191.54 306.3C216.78 308.83 236 330.08 236 355.45V486H130V426L76.33 399.17C35.68 378.84 10 337.29 10 291.84V156C10 139.43 23.43 126 40 126C56.57 126 70 139.43 70 156V247.71Z" stroke="black" stroke-width="26.6667" stroke-miterlimit="10" stroke-linecap="round" stroke-linejoin="round"/>
<path d="M110 348.43L58.79 297.21C53.36 291.781 50 284.281 50 276C50 262.941 58.34 251.83 70 247.71" stroke="black" stroke-width="26.6667" stroke-miterlimit="10" stroke-linecap="round" stroke-linejoin="round"/>
<path d="M469 384C469 389.522 464.522 394 459 394C453.478 394 449 389.522 449 384C449 378.478 453.478 374 459 374C464.522 374 469 378.478 469 384Z" fill="black"/>
<path d="M487.432 349.145C496.821 331.875 501.999 312.251 501.999 291.84V156C501.999 139.43 488.57 126 472 126C455.43 126 442 139.43 442 156V247.71C438.87 246.6 435.51 246 432 246C423.72 246 416.22 249.361 410.79 254.791L388.33 277.241C374.361 291.21 340.85 304.25 321.201 306.22L320.46 306.3C295.22 308.831 276 330.081 276 355.451V486H382V426L420.259 406.874" stroke="black" stroke-width="26.6667" stroke-miterlimit="10" stroke-linecap="round" stroke-linejoin="round"/>
</g>
</svg>
