<svg width="512" height="512" viewBox="0 0 512 512" fill="none" xmlns="http://www.w3.org/2000/svg">
<path d="M486.5 458H25.5C15.559 458 7.5 449.941 7.5 440V88C7.5 78.059 15.559 70 25.5 70H486.5C496.441 70 504.5 78.059 504.5 88V440C504.5 449.941 496.441 458 486.5 458Z" fill="#E7F1FF"/>
<path d="M504.5 160H7.5V88.275C7.5 78.182 15.682 70 25.775 70H486.226C496.319 70 504.501 78.182 504.501 88.275V160H504.5Z" fill="#8AC9FE"/>
<path d="M300.144 130C308.428 130 315.144 123.284 315.144 115C315.144 106.716 308.428 100 300.144 100C291.86 100 285.144 106.716 285.144 115C285.144 123.284 291.86 130 300.144 130Z" fill="#C8EA73"/>
<path d="M362.644 130C370.928 130 377.644 123.284 377.644 115C377.644 106.716 370.928 100 362.644 100C354.36 100 347.644 106.716 347.644 115C347.644 123.284 354.36 130 362.644 130Z" fill="#FFE07D"/>
<path d="M425.144 130C433.428 130 440.144 123.284 440.144 115C440.144 106.716 433.428 100 425.144 100C416.86 100 410.144 106.716 410.144 115C410.144 123.284 416.86 130 425.144 130Z" fill="#DD4FB1"/>
<path d="M414.902 228.815H383.902C375.618 228.815 368.902 222.099 368.902 213.815C368.902 205.531 375.618 198.815 383.902 198.815H414.902C423.186 198.815 429.902 205.531 429.902 213.815C429.902 222.099 423.186 228.815 414.902 228.815Z" fill="#8AC9FE"/>
<path d="M325.735 354.791H181.346C171.384 354.791 162.618 348.214 159.827 338.646L128.727 232.043C127.669 228.417 130.387 224.791 134.162 224.791H325.736C331.679 224.791 336.497 229.612 336.497 235.558V344.024C336.496 349.97 331.678 354.791 325.735 354.791Z" fill="#FFE177"/>
<path d="M276.108 324.791C267.828 324.791 261.116 318.079 261.116 309.799V269.783C261.116 261.503 267.828 254.791 276.108 254.791C284.388 254.791 291.1 261.503 291.1 269.783V309.799C291.1 318.079 284.388 324.791 276.108 324.791Z" fill="#8AC9FE"/>
<path d="M207.312 324.791C199.032 324.791 192.32 318.079 192.32 309.799V269.783C192.32 261.503 199.032 254.791 207.312 254.791C215.592 254.791 222.304 261.503 222.304 269.783V309.799C222.304 318.079 215.592 324.791 207.312 324.791Z" fill="#8AC9FE"/>
<path d="M343.442 420.815C354.488 420.815 363.442 411.861 363.442 400.815C363.442 389.769 354.488 380.815 343.442 380.815C332.396 380.815 323.442 389.769 323.442 400.815C323.442 411.861 332.396 420.815 343.442 420.815Z" fill="#8AC9FE"/>
<path d="M143.887 420.815C154.933 420.815 163.887 411.861 163.887 400.815C163.887 389.769 154.933 380.815 143.887 380.815C132.841 380.815 123.887 389.769 123.887 400.815C123.887 411.861 132.841 420.815 143.887 420.815Z" fill="#8AC9FE"/>
<path d="M60.9871 164V64C60.9871 58.477 65.4641 54 70.9871 54H196.987C202.51 54 206.987 58.477 206.987 64V164C206.987 169.523 202.51 174 196.987 174H70.9871C65.4651 174 60.9871 169.523 60.9871 164Z" fill="#FFE177"/>
<path d="M59 160H10.333" stroke="black" stroke-width="15" stroke-miterlimit="10" stroke-linecap="round" stroke-linejoin="round"/>
<path d="M501.222 160H209.333" stroke="black" stroke-width="15" stroke-miterlimit="10" stroke-linecap="round" stroke-linejoin="round"/>
<path d="M7.5 354.791V88C7.5 78.059 15.559 70 25.5 70H59" stroke="black" stroke-width="15" stroke-miterlimit="10" stroke-linecap="round" stroke-linejoin="round"/>
<path d="M446 70H486.5C496.441 70 504.5 78.059 504.5 88V440C504.5 449.941 496.441 458 486.5 458H25.5C15.559 458 7.5 449.941 7.5 440V389.333" stroke="black" stroke-width="15" stroke-miterlimit="10" stroke-linecap="round" stroke-linejoin="round"/>
<path d="M209.333 70H410.144" stroke="black" stroke-width="15" stroke-miterlimit="10" stroke-linecap="round" stroke-linejoin="round"/>
<path d="M300.144 130C308.428 130 315.144 123.284 315.144 115C315.144 106.716 308.428 100 300.144 100C291.86 100 285.144 106.716 285.144 115C285.144 123.284 291.86 130 300.144 130Z" stroke="black" stroke-width="15" stroke-miterlimit="10" stroke-linecap="round" stroke-linejoin="round"/>
<path d="M362.644 130C370.928 130 377.644 123.284 377.644 115C377.644 106.716 370.928 100 362.644 100C354.36 100 347.644 106.716 347.644 115C347.644 123.284 354.36 130 362.644 130Z" stroke="black" stroke-width="15" stroke-miterlimit="10" stroke-linecap="round" stroke-linejoin="round"/>
<path d="M425.144 130C433.428 130 440.144 123.284 440.144 115C440.144 106.716 433.428 100 425.144 100C416.86 100 410.144 106.716 410.144 115C410.144 123.284 416.86 130 425.144 130Z" stroke="black" stroke-width="15" stroke-miterlimit="10" stroke-linecap="round" stroke-linejoin="round"/>
<path d="M322.111 400.815H166.111" stroke="black" stroke-width="15" stroke-miterlimit="10" stroke-linecap="round" stroke-linejoin="round"/>
<path d="M325.735 354.791L335.747 380.814" stroke="black" stroke-width="15" stroke-miterlimit="10" stroke-linecap="round" stroke-linejoin="round"/>
<path d="M325.735 354.791H181.346C171.384 354.791 162.618 348.214 159.827 338.646L128.727 232.043C127.669 228.417 130.387 224.791 134.162 224.791H325.736C331.679 224.791 336.497 229.612 336.497 235.558V344.024C336.496 349.97 331.678 354.791 325.735 354.791Z" stroke="black" stroke-width="15" stroke-miterlimit="10" stroke-linecap="round" stroke-linejoin="round"/>
<path d="M276.108 324.791C267.828 324.791 261.116 318.079 261.116 309.799V269.783C261.116 261.503 267.828 254.791 276.108 254.791C284.388 254.791 291.1 261.503 291.1 269.783V309.799C291.1 318.079 284.388 324.791 276.108 324.791Z" stroke="black" stroke-width="15" stroke-miterlimit="10" stroke-linecap="round" stroke-linejoin="round"/>
<path d="M207.312 324.791C199.032 324.791 192.32 318.079 192.32 309.799V269.783C192.32 261.503 199.032 254.791 207.312 254.791C215.592 254.791 222.304 261.503 222.304 269.783V309.799C222.304 318.079 215.592 324.791 207.312 324.791Z" stroke="black" stroke-width="15" stroke-miterlimit="10" stroke-linecap="round" stroke-linejoin="round"/>
<path d="M343.442 420.815C354.488 420.815 363.442 411.861 363.442 400.815C363.442 389.769 354.488 380.815 343.442 380.815C332.396 380.815 323.442 389.769 323.442 400.815C323.442 411.861 332.396 420.815 343.442 420.815Z" stroke="black" stroke-width="15" stroke-miterlimit="10" stroke-linecap="round" stroke-linejoin="round"/>
<path d="M143.887 420.815C154.933 420.815 163.887 411.861 163.887 400.815C163.887 389.769 154.933 380.815 143.887 380.815C132.841 380.815 123.887 389.769 123.887 400.815C123.887 411.861 132.841 420.815 143.887 420.815Z" stroke="black" stroke-width="15" stroke-miterlimit="10" stroke-linecap="round" stroke-linejoin="round"/>
<path d="M414.902 228.815H383.902C375.618 228.815 368.902 222.099 368.902 213.815C368.902 205.531 375.618 198.815 383.902 198.815H414.902C423.186 198.815 429.902 205.531 429.902 213.815C429.902 222.099 423.186 228.815 414.902 228.815Z" stroke="black" stroke-width="15" stroke-miterlimit="10" stroke-linecap="round" stroke-linejoin="round"/>
<path d="M394.889 228.815L380.396 260.102C376.429 268.667 367.849 274.148 358.41 274.148H337.223" stroke="black" stroke-width="15" stroke-miterlimit="10" stroke-linecap="round" stroke-linejoin="round"/>
<path d="M60.9871 164V64C60.9871 58.477 65.4641 54 70.9871 54H196.987C202.51 54 206.987 58.477 206.987 64V164C206.987 169.523 202.51 174 196.987 174H70.9871C65.4651 174 60.9871 169.523 60.9871 164Z" stroke="black" stroke-width="15" stroke-miterlimit="10" stroke-linecap="round" stroke-linejoin="round"/>
<path d="M100.653 84H146.653" stroke="black" stroke-width="15" stroke-miterlimit="10" stroke-linecap="round" stroke-linejoin="round"/>
<path d="M100.653 114H163.072" stroke="black" stroke-width="15" stroke-miterlimit="10" stroke-linecap="round" stroke-linejoin="round"/>
<path d="M100.653 144H163.072" stroke="black" stroke-width="15" stroke-miterlimit="10" stroke-linecap="round" stroke-linejoin="round"/>
</svg>
