<svg width="512" height="512" viewBox="0 0 512 512" fill="none" xmlns="http://www.w3.org/2000/svg">
<mask id="mask0_4221_872" style="mask-type:luminance" maskUnits="userSpaceOnUse" x="0" y="0" width="512" height="512">
<path d="M0 3.05176e-05H512V512H0V3.05176e-05Z" fill="white"/>
</mask>
<g mask="url(#mask0_4221_872)">
<path d="M187.119 162.486H60.5934C60.1894 162.486 59.8624 162.158 59.8624 161.754V128.573C59.8624 105.362 78.6774 86.5466 101.887 86.5466H145.825C169.035 86.5466 187.85 105.362 187.85 128.573V161.754C187.85 162.158 187.523 162.486 187.119 162.486Z" fill="#475A99"/>
<path d="M455.774 162.486H329.248C328.844 162.486 328.517 162.158 328.517 161.754V128.573C328.517 105.362 347.332 86.5466 370.542 86.5466H414.48C437.69 86.5466 456.505 105.362 456.505 128.573V161.754C456.505 162.158 456.178 162.486 455.774 162.486Z" fill="#6171A3"/>
<path d="M504.418 315.217C496.696 279.468 490.845 243.414 486.866 207.056C482.87 161.559 438.411 114.072 385.553 121.743C368.116 124.873 353.478 133.471 342.083 145.182C340.649 144.885 339.228 144.628 337.826 144.425C284.731 138.308 231.637 138.308 178.542 144.425C177.14 144.628 175.719 144.885 174.285 145.182C162.889 133.471 148.252 124.873 130.815 121.743C77.9563 114.072 33.4983 161.559 29.5013 207.056C25.5233 243.414 19.6723 279.468 11.9493 315.217C1.35328 359.645 28.5143 418.752 81.0853 428.191C122.833 434.249 159.335 405.898 174.807 371.297C176.064 371.548 177.31 371.766 178.542 371.945C231.636 378.062 284.731 378.062 337.826 371.945C339.057 371.766 340.303 371.548 341.56 371.297C357.032 405.898 393.534 434.249 435.282 428.191H435.283C487.854 418.752 515.014 359.645 504.418 315.217Z" fill="#C0ADE2"/>
<path d="M269.234 271.064H247.134C239.017 271.064 232.436 264.483 232.436 256.366C232.436 248.248 239.017 241.668 247.134 241.668H269.234C277.351 241.668 283.932 248.248 283.932 256.366C283.932 264.483 277.351 271.064 269.234 271.064Z" fill="#FFFDDE"/>
<path d="M403.637 197.015C403.637 208.774 394.105 218.306 382.346 218.306C370.587 218.306 361.055 208.774 361.055 197.015C361.055 185.256 370.587 175.724 382.346 175.724C394.105 175.724 403.637 185.256 403.637 197.015Z" fill="#E8899E"/>
<path d="M459.781 253.959C459.781 265.718 450.249 275.25 438.49 275.25C426.731 275.25 417.199 265.718 417.199 253.959C417.199 242.2 426.731 232.668 438.49 232.668C450.249 232.668 459.781 242.2 459.781 253.959Z" fill="#90DAAA"/>
<path d="M212.178 309.798C212.178 328.17 197.284 343.064 178.912 343.064C160.54 343.064 145.646 328.17 145.646 309.798C145.646 291.426 160.54 276.532 178.912 276.532C197.284 276.532 212.178 291.426 212.178 309.798Z" fill="#475A99"/>
<path d="M370.722 309.798C370.722 328.17 355.828 343.064 337.456 343.064C319.084 343.064 304.19 328.17 304.19 309.798C304.19 291.426 319.084 276.532 337.456 276.532C355.828 276.532 370.722 291.426 370.722 309.798Z" fill="#6171A3"/>
<path d="M138.048 201.987H134.823C128.658 201.987 123.66 196.989 123.66 190.824V187.599C123.66 181.434 118.662 176.436 112.497 176.436H99.4032C93.2372 176.436 88.2402 181.434 88.2402 187.599V190.824C88.2402 196.989 83.2422 201.987 77.0772 201.987H73.8522C67.6872 201.987 62.6892 206.985 62.6892 213.15V226.245C62.6892 232.41 67.6872 237.407 73.8522 237.407H77.0772C83.2422 237.407 88.2402 242.405 88.2402 248.57V251.795C88.2402 257.961 93.2372 262.958 99.4032 262.958H112.497C118.662 262.958 123.66 257.961 123.66 251.795V248.57C123.66 242.405 128.658 237.407 134.823 237.407H138.048C144.213 237.407 149.211 232.41 149.211 226.245V213.15C149.211 206.985 144.213 201.987 138.048 201.987Z" fill="#F9F29D"/>
<path d="M271.885 376.397C293.865 375.961 315.846 374.477 337.826 371.945C339.058 371.766 340.304 371.549 341.561 371.298C357.033 405.898 393.535 434.249 435.283 428.191C487.854 418.752 515.015 359.645 504.419 315.217C500.532 297.225 497.12 279.157 494.182 261.011" stroke="black" stroke-width="20" stroke-miterlimit="10" stroke-linecap="round" stroke-linejoin="round"/>
<path d="M489.515 229.118C488.555 221.777 487.672 214.423 486.866 207.056C482.87 161.559 438.411 114.072 385.553 121.743C368.116 124.873 353.478 133.471 342.083 145.182C340.649 144.885 339.228 144.628 337.826 144.425C284.731 138.308 231.637 138.308 178.542 144.425C177.14 144.628 175.719 144.885 174.285 145.182C162.889 133.471 148.252 124.873 130.815 121.743C77.9572 114.072 33.4983 161.559 29.5023 207.056C25.5233 243.414 19.6723 279.468 11.9503 315.217C1.35326 359.645 28.5143 418.752 81.0853 428.191C122.833 434.249 159.335 405.898 174.807 371.297C176.064 371.549 177.31 371.766 178.542 371.945C197.281 374.104 216.021 375.501 234.76 376.136" stroke="black" stroke-width="20" stroke-miterlimit="10" stroke-linecap="round" stroke-linejoin="round"/>
<path d="M212.178 309.798C212.178 328.17 197.284 343.064 178.912 343.064C160.54 343.064 145.646 328.17 145.646 309.798C145.646 291.426 160.54 276.532 178.912 276.532C197.284 276.532 212.178 291.426 212.178 309.798Z" stroke="black" stroke-width="20" stroke-miterlimit="10" stroke-linecap="round" stroke-linejoin="round"/>
<path d="M370.722 309.798C370.722 328.17 355.828 343.064 337.456 343.064C319.084 343.064 304.19 328.17 304.19 309.798C304.19 291.426 319.084 276.532 337.456 276.532C355.828 276.532 370.722 291.426 370.722 309.798Z" stroke="black" stroke-width="20" stroke-miterlimit="10" stroke-linecap="round" stroke-linejoin="round"/>
<path d="M138.048 201.987H134.823C128.658 201.987 123.66 196.989 123.66 190.824V187.599C123.66 181.434 118.662 176.436 112.497 176.436H99.4032C93.2372 176.436 88.2402 181.434 88.2402 187.599V190.824C88.2402 196.989 83.2422 201.987 77.0772 201.987H73.8522C67.6872 201.987 62.6892 206.985 62.6892 213.15V226.245C62.6892 232.41 67.6872 237.407 73.8522 237.407H77.0772C83.2422 237.407 88.2402 242.405 88.2402 248.57V251.795C88.2402 257.961 93.2372 262.958 99.4032 262.958H112.497C118.662 262.958 123.66 257.961 123.66 251.795V248.57C123.66 242.405 128.658 237.407 134.823 237.407H138.048C144.213 237.407 149.211 232.41 149.211 226.245V213.15C149.211 206.985 144.213 201.987 138.048 201.987Z" stroke="black" stroke-width="20" stroke-miterlimit="10" stroke-linecap="round" stroke-linejoin="round"/>
<path d="M403.637 197.015C403.637 208.774 394.105 218.306 382.346 218.306C370.587 218.306 361.055 208.774 361.055 197.015C361.055 185.256 370.587 175.724 382.346 175.724C394.105 175.724 403.637 185.256 403.637 197.015Z" stroke="black" stroke-width="20" stroke-miterlimit="10" stroke-linecap="round" stroke-linejoin="round"/>
<path d="M459.781 253.959C459.781 265.718 450.249 275.25 438.49 275.25C426.731 275.25 417.199 265.718 417.199 253.959C417.199 242.2 426.731 232.668 438.49 232.668C450.249 232.668 459.781 242.2 459.781 253.959Z" stroke="black" stroke-width="20" stroke-miterlimit="10" stroke-linecap="round" stroke-linejoin="round"/>
<path d="M269.234 271.064H247.134C239.017 271.064 232.436 264.483 232.436 256.366C232.436 248.248 239.017 241.668 247.134 241.668H269.234C277.351 241.668 283.932 248.248 283.932 256.366C283.932 264.483 277.351 271.064 269.234 271.064Z" stroke="black" stroke-width="20" stroke-miterlimit="10" stroke-linecap="round" stroke-linejoin="round"/>
<path d="M59.86 146.32V128.57C59.86 105.36 78.68 86.5501 101.89 86.5501H145.83C169.04 86.5501 187.85 105.36 187.85 128.57V143.41" stroke="black" stroke-width="20" stroke-miterlimit="10" stroke-linecap="round" stroke-linejoin="round"/>
<path d="M328.52 143.41V128.57C328.52 105.36 347.33 86.5501 370.54 86.5501H414.48C437.69 86.5501 456.51 105.36 456.51 128.57V146.32" stroke="black" stroke-width="20" stroke-miterlimit="10" stroke-linecap="round" stroke-linejoin="round"/>
</g>
</svg>
